<svg xmlns="http://www.w3.org/2000/svg" width="100pt" height="100pt" viewBox="0 0 100 100"><path fill-rule="evenodd" d="M67.602 26.328H32.399a6.09 6.09 0 0 0-6.07 6.07v35.203a6.09 6.09 0 0 0 6.07 6.07h35.203a6.09 6.09 0 0 0 6.07-6.07V32.398a6.09 6.09 0 0 0-6.07-6.07m2.117 41.273a2.124 2.124 0 0 1-2.117 2.117H32.399a2.124 2.124 0 0 1-2.117-2.117V32.398a2.124 2.124 0 0 1 2.117-2.117h35.203a2.124 2.124 0 0 1 2.117 2.117zm21.582-26.602c1.465 0 2.805.832 3.453 2.152a3.841 3.841 0 1 1-7.175 2.63h-12v-1.903h12a3.845 3.845 0 0 1 3.722-2.879M84.22 14.108c0-1.465.836-2.805 2.153-3.453a3.84 3.84 0 0 1 4.046.422 3.82 3.82 0 0 1 1.399 3.816A3.83 3.83 0 0 1 89 17.827v16.62a.937.937 0 0 1-.941.942H75.551V33.51H87.11V17.826a3.84 3.84 0 0 1-2.89-3.719zm-73.949-2.11a3.839 3.839 0 0 1 7.559-1h16.62c.52 0 .942.422.942.942v12.5h-1.879V12.889H17.828a3.84 3.84 0 0 1-7.558-.89zm55.281 7h6.86a3.84 3.84 0 0 1 4.199-2.867c1.922.243 3.363 1.875 3.363 3.813s-1.441 3.57-3.363 3.808a3.84 3.84 0 0 1-4.2-2.863H66.49v3.61h-1.88v-4.602c.052-.488.45-.871.942-.898m-9.43 5.5H54.24v-15.8c0-.52.422-.938.941-.938H64a3.835 3.835 0 0 1 4.196-2.871 3.835 3.835 0 0 1 3.367 3.809 3.84 3.84 0 0 1-7.563.94h-7.878zm-15.12-15.8c0-1.465.832-2.805 2.152-3.454a3.841 3.841 0 1 1 2.629 7.176v12H43.88v-12A3.845 3.845 0 0 1 41 8.698m-25.22 77.19a3.85 3.85 0 0 1-2.152 3.454 3.84 3.84 0 0 1-4.047-.422 3.82 3.82 0 0 1-1.398-3.817A3.83 3.83 0 0 1 11 82.17V65.549c0-.52.422-.942.942-.942h12.5v1.88H12.89V82.17a3.84 3.84 0 0 1 2.89 3.72zM19 34.448v-6.86a3.84 3.84 0 0 1-2.868-4.199c.242-1.922 1.875-3.363 3.813-3.363s3.57 1.441 3.808 3.363a3.84 3.84 0 0 1-2.863 4.2v5.921h3.61v1.879h-4.602a1.004 1.004 0 0 1-.899-.941m-14.142-2.18a3.84 3.84 0 1 1 4.782 3.73v7.891H24.45v1.879H8.7a.94.94 0 0 1-.938-.942v-8.828a3.83 3.83 0 0 1-2.902-3.73zm3.84 26.73a3.85 3.85 0 0 1-3.453-2.152 3.841 3.841 0 1 1 7.176-2.63h12v1.88h-12v.004a3.844 3.844 0 0 1-3.723 2.898m25.75 22h-6.86a3.84 3.84 0 0 1-4.199 2.867c-1.921-.242-3.363-1.875-3.363-3.812s1.442-3.57 3.363-3.809a3.84 3.84 0 0 1 4.2 2.863h5.922V75.55h1.878v4.55c-.023.508-.43.918-.94.95zm55.281 7a3.84 3.84 0 0 1-7.559.941h-16.62a.94.94 0 0 1-.942-.941v-12.45h1.879v11.56H82.17a3.838 3.838 0 0 1 7.559.941zm-45.852-12.45h1.879l.004 15.75a.94.94 0 0 1-.941.938H36a3.835 3.835 0 0 1-4.196 2.871 3.84 3.84 0 1 1 4.195-4.75h7.89zM59 91.299a3.85 3.85 0 0 1-2.152 3.454 3.841 3.841 0 1 1-2.63-7.176v-12h1.88v12h.004A3.844 3.844 0 0 1 59 91.3m22-25.75v6.86a3.84 3.84 0 0 1 2.867 4.2c-.242 1.921-1.875 3.363-3.812 3.363s-3.57-1.442-3.809-3.364a3.84 3.84 0 0 1 2.863-4.199v-5.922H75.55v-1.879h4.55c.509.024.919.43.95.942zm14.09 2.18a3.83 3.83 0 0 1-2.16 3.458 3.837 3.837 0 0 1-5.43-4.278A3.84 3.84 0 0 1 90.36 64v-7.88H75.55v-1.883H91.3c.52 0 .938.422.938.942v8.82a3.83 3.83 0 0 1 2.902 3.73zM67.602 32.16H32.398a.237.237 0 0 0-.238.239V67.6a.26.26 0 0 0 .238.238h35.203a.23.23 0 0 0 .168-.07.23.23 0 0 0 .07-.168V32.397a.26.26 0 0 0-.238-.238M62.79 55.828a5.5 5.5 0 0 1-1.13 4.332 5.55 5.55 0 0 1-3.6 2 4.51 4.51 0 0 1-3.224 3.93A4.515 4.515 0 0 1 50 64.517a4.52 4.52 0 0 1-4.824 1.578 4.505 4.505 0 0 1-3.234-3.906 5.57 5.57 0 0 1-3.602-2 5.5 5.5 0 0 1-1.129-4.332A6.426 6.426 0 0 1 36 44.94c-.614-1.5-.505-3.2.292-4.61a5.28 5.28 0 0 1 3.797-2.62 5.54 5.54 0 0 1 4.47-3.91 5.54 5.54 0 0 1 5.44 2.378 5.542 5.542 0 0 1 9.93 1.531 5.28 5.28 0 0 1 3.785 2.63 5.3 5.3 0 0 1 .286 4.6 6.42 6.42 0 0 1 2.43 5.79 6.42 6.42 0 0 1-3.661 5.098zM45.39 35.6a3.68 3.68 0 0 0-3.176 1.851 3.69 3.69 0 0 0 .015 3.676.955.955 0 0 1-.308 1.312.956.956 0 0 1-1.313-.312 5.5 5.5 0 0 1-.75-2.41 3.42 3.42 0 0 0-2.312 2.984 3.41 3.41 0 0 0 1.844 3.297.94.94 0 0 1 .43 1.25.92.92 0 0 1-.536.48.93.93 0 0 1-.715-.038A5.4 5.4 0 0 1 37 46.537a4.47 4.47 0 0 0-1.61 3.461c0 1.34.594 2.61 1.618 3.473a4.54 4.54 0 0 0 3.691 1.008.945.945 0 0 1 1.082.78.944.944 0 0 1-.781 1.079 6.6 6.6 0 0 1-2 0 3.7 3.7 0 0 0 .8 2.66 3.58 3.58 0 0 0 2.36 1.328 4.5 4.5 0 0 1 1.692-2.25.93.93 0 0 1 1.296.23.93.93 0 0 1-.226 1.302 2.64 2.64 0 1 0 4.137 2.16v-3.36a3.43 3.43 0 0 0-1-2.289 3.02 3.02 0 0 0-2.188-.793.939.939 0 1 1 0-1.879 4.9 4.9 0 0 1 3.149 1v-15.18a3.665 3.665 0 0 0-3.63-3.668zm-1.243 14.738a5.7 5.7 0 0 1-3.878 1.468.939.939 0 1 1 0-1.879 3.9 3.9 0 0 0 2.62-1 3 3 0 0 0 1-2.257c0-.52.422-.942.938-.942.52 0 .942.422.942.942a4.87 4.87 0 0 1-1.622 3.668m17.281-2.641a.927.927 0 0 1-1.25-.438.97.97 0 0 1-.046-.722.95.95 0 0 1 .476-.54 3.416 3.416 0 0 0-.469-6.328 5.5 5.5 0 0 1-.75 2.407.953.953 0 1 1-1.62-1 3.6 3.6 0 0 0 .5-1.86 3.64 3.64 0 0 0-1.005-2.714 3.66 3.66 0 0 0-2.66-1.145 3.68 3.68 0 0 0-2.664 1.145 3.65 3.65 0 0 0-1 2.714v2c-.027.84.297 1.649.895 2.239a3 3 0 0 0 2.253.851.942.942 0 0 1 0 1.883 4.96 4.96 0 0 1-3.148-1v16.57c0 .918.48 1.766 1.27 2.242a2.62 2.62 0 0 0 2.574.082 2.628 2.628 0 0 0 .293-4.484.933.933 0 0 1-.227-1.3.93.93 0 0 1 1.297-.231c.79.55 1.383 1.34 1.691 2.25a3.6 3.6 0 0 0 2.36-1.32 3.7 3.7 0 0 0 .8-2.63 6.6 6.6 0 0 1-2 0 .943.943 0 0 1-.71-1.07.94.94 0 0 1 1.02-.781 4.547 4.547 0 0 0 5.3-4.52 4.47 4.47 0 0 0-1.61-3.46c-.449.48-.98.875-1.57 1.16m-2.171 4.129h.003a6.12 6.12 0 0 0-4.75 2.73.941.941 0 0 1-1.632-.937c2-3.5 6.289-3.66 6.3-3.66a.95.95 0 0 1 .73.207.95.95 0 0 1 .337.683.94.94 0 0 1-.985.977z"/></svg>